# xmcd CD database file
#
# Track frame offsets:
#	150
#	21615
#	38570
#	58300
#	74883
#	95212
#	114044
#	131150
#	156581
#	179533
#
# Disc length: 2862 seconds
#
# Revision: 3
# Processed by: cddbd v1.5.2PL0 Copyright (c) Steve Scherf et al.
# Submitted via: CDex 1.50
#
DISCID=9d0b2c0a
DTITLE=Wolfgang Ambros - Gewitter
DYEAR=1987
DGENRE=Austro Pop
TTITLE0=Wolfgang Ambros - Gewitter
TTITLE1=Wolfgang Ambros - Zeitung
TTITLE2=Wolfgang Ambros - Wir die denken
TTITLE3=Wolfgang Ambros - Mein seltsamer Beruf
TTITLE4=Wolfgang Ambros - Die Wegwerfgesellsschaft
TTITLE5=Wolfgang Ambros - V.I.P
TTITLE6=Wolfgang Ambros - Ein Tag zum verzweifeln
TTITLE7=Wolfgang Ambros - Gut und schön
TTITLE8=Wolfgang Ambros - Niemals ergeben
TTITLE9=Wolfgang Ambros - Winter
EXTD=YEAR: 1987
EXTT0=
EXTT1=
EXTT2=
EXTT3=
EXTT4=
EXTT5=
EXTT6=
EXTT7=
EXTT8=
EXTT9=
PLAYORDER=
